<svg width="1200" height="320" xmlns="http://www.w3.org/2000/svg">
  <!-- Background -->
  <rect width="1200" height="320" fill="#0D1117"/>

  <!-- Tricolor stripe top -->
  <rect x="0" y="0" width="400" height="3" fill="#002B7F"/>
  <rect x="400" y="0" width="400" height="3" fill="#FCD116"/>
  <rect x="800" y="0" width="400" height="3" fill="#CE1126"/>

  <!-- Grid lines -->
  <g opacity="0.04" stroke="#5DCAA5" stroke-width="0.5">
    <line x1="0" y1="40" x2="1200" y2="40"/><line x1="0" y1="80" x2="1200" y2="80"/>
    <line x1="0" y1="120" x2="1200" y2="120"/><line x1="0" y1="160" x2="1200" y2="160"/>
    <line x1="0" y1="200" x2="1200" y2="200"/><line x1="0" y1="240" x2="1200" y2="240"/>
    <line x1="0" y1="280" x2="1200" y2="280"/>
    <line x1="100" y1="0" x2="100" y2="320"/><line x1="200" y1="0" x2="200" y2="320"/>
    <line x1="300" y1="0" x2="300" y2="320"/><line x1="400" y1="0" x2="400" y2="320"/>
    <line x1="500" y1="0" x2="500" y2="320"/><line x1="600" y1="0" x2="600" y2="320"/>
    <line x1="700" y1="0" x2="700" y2="320"/><line x1="800" y1="0" x2="800" y2="320"/>
    <line x1="900" y1="0" x2="900" y2="320"/><line x1="1000" y1="0" x2="1000" y2="320"/>
    <line x1="1100" y1="0" x2="1100" y2="320"/>
  </g>

  <!-- Binary watermark left -->
  <g opacity="0.05" fill="#5DCAA5" font-family="monospace" font-size="11">
    <text x="20" y="50">01000111 01000101</text>
    <text x="20" y="66">01010100 01001111</text>
    <text x="20" y="82">01000010 01011001</text>
    <text x="20" y="98">01010100 01000101</text>
    <text x="20" y="114">01001000 01100101</text>
    <text x="20" y="130">01101100 01101100</text>
    <text x="20" y="146">01101111 00100000</text>
    <text x="20" y="162">01010111 01101111</text>
  </g>

  <!-- Binary watermark right -->
  <g opacity="0.05" fill="#5DCAA5" font-family="monospace" font-size="11" text-anchor="end">
    <text x="1180" y="140">10110001 11001010</text>
    <text x="1180" y="156">01011010 10010011</text>
    <text x="1180" y="172">11100101 00110110</text>
    <text x="1180" y="188">01001101 10101100</text>
    <text x="1180" y="204">11010010 01100111</text>
    <text x="1180" y="220">10001011 11010100</text>
    <text x="1180" y="236">01110010 10011001</text>
  </g>

  <!-- Circuit traces -->
  <g stroke="#5DCAA5" fill="none" opacity="0.08" stroke-width="1">
    <path d="M0 210 H60 V170 H120"/>
    <path d="M0 240 H40 V190 H100 V210 H160"/>
    <path d="M1200 110 H1140 V150 H1080"/>
    <path d="M1200 140 H1150 V180 H1090 V160 H1040"/>
  </g>
  <g fill="#5DCAA5" opacity="0.12">
    <circle cx="120" cy="170" r="3"/><circle cx="160" cy="210" r="3"/>
    <circle cx="1080" cy="150" r="3"/><circle cx="1040" cy="160" r="3"/>
  </g>

  <!-- Main title: GetoByte - big, centered -->
  <text x="418" y="120" font-family="monospace" font-size="76" font-weight="bold" fill="#002B7F">G</text>
  <text x="464" y="120" font-family="monospace" font-size="76" font-weight="bold" fill="#3B8BD4">e</text>
  <text x="510" y="120" font-family="monospace" font-size="76" font-weight="bold" fill="#3B8BD4">t</text>
  <text x="556" y="120" font-family="monospace" font-size="76" font-weight="bold" fill="#FCD116">o</text>
  <text x="600" y="120" font-family="monospace" font-size="76" font-weight="bold" fill="#FCD116">B</text>
  <text x="646" y="120" font-family="monospace" font-size="76" font-weight="bold" fill="#FCD116">y</text>
  <text x="692" y="120" font-family="monospace" font-size="76" font-weight="bold" fill="#CE1126">t</text>
  <text x="738" y="120" font-family="monospace" font-size="76" font-weight="bold" fill="#CE1126">e</text>

  <!-- Subtitle -->
  <text x="600" y="162" text-anchor="middle" font-family="monospace" font-size="16" fill="#9FE1CB" opacity="0.85" letter-spacing="8">DACIAN CODE · BUILD · SHIP</text>

  <!-- AI tagline -->
  <text x="600" y="200" text-anchor="middle" font-family="monospace" font-size="13" fill="#888888" letter-spacing="2">everything I build is AI-powered</text>

  <!-- AI brand dots + names (each separate for GitHub safety) -->
  <!-- Claude -->
  <circle cx="310" cy="232" r="4" fill="#D4A27F"/>
  <text x="322" y="237" font-family="monospace" font-size="13" font-weight="bold" fill="#D4A27F">Claude</text>
  <!-- separator -->
  <text x="380" y="237" font-family="monospace" font-size="13" fill="#333">·</text>
  <!-- ChatGPT -->
  <circle cx="400" cy="232" r="4" fill="#74AA9C"/>
  <text x="412" y="237" font-family="monospace" font-size="13" font-weight="bold" fill="#74AA9C">ChatGPT</text>
  <!-- separator -->
  <text x="480" y="237" font-family="monospace" font-size="13" fill="#333">·</text>
  <!-- Gemini -->
  <circle cx="500" cy="232" r="4" fill="#8E75B2"/>
  <text x="512" y="237" font-family="monospace" font-size="13" font-weight="bold" fill="#8E75B2">Gemini</text>
  <!-- separator -->
  <text x="572" y="237" font-family="monospace" font-size="13" fill="#333">·</text>
  <!-- Mistral -->
  <circle cx="592" cy="232" r="4" fill="#FF7000"/>
  <text x="604" y="237" font-family="monospace" font-size="13" font-weight="bold" fill="#FF7000">Mistral</text>
  <!-- separator -->
  <text x="672" y="237" font-family="monospace" font-size="13" fill="#333">·</text>
  <!-- DeepSeek -->
  <circle cx="692" cy="232" r="4" fill="#4D6BFF"/>
  <text x="704" y="237" font-family="monospace" font-size="13" font-weight="bold" fill="#4D6BFF">DeepSeek</text>
  <!-- separator -->
  <text x="784" y="237" font-family="monospace" font-size="13" fill="#333">·</text>
  <!-- Grok -->
  <circle cx="804" cy="232" r="4" fill="#FFFFFF"/>
  <text x="816" y="237" font-family="monospace" font-size="13" font-weight="bold" fill="#EEEEEE">Grok</text>

  <!-- Hex accent -->
  <text x="600" y="272" text-anchor="middle" font-family="monospace" font-size="10" fill="#5DCAA5" opacity="0.12" letter-spacing="1">0x47 0x45 0x54 0x4F 0x42 0x59 0x54 0x45</text>

  <!-- Tricolor stripe bottom -->
  <rect x="0" y="317" width="400" height="3" fill="#002B7F"/>
  <rect x="400" y="317" width="400" height="3" fill="#FCD116"/>
  <rect x="800" y="317" width="400" height="3" fill="#CE1126"/>

  <!-- Corner accents -->
  <rect x="0" y="3" width="50" height="2" fill="#002B7F" opacity="0.3"/>
  <rect x="0" y="3" width="2" height="50" fill="#002B7F" opacity="0.3"/>
  <rect x="1150" y="3" width="50" height="2" fill="#CE1126" opacity="0.3"/>
  <rect x="1198" y="3" width="2" height="50" fill="#CE1126" opacity="0.3"/>
  <rect x="0" y="315" width="50" height="2" fill="#CE1126" opacity="0.3"/>
  <rect x="0" y="267" width="2" height="50" fill="#CE1126" opacity="0.3"/>
  <rect x="1150" y="315" width="50" height="2" fill="#002B7F" opacity="0.3"/>
  <rect x="1198" y="267" width="2" height="50" fill="#002B7F" opacity="0.3"/>
</svg>
